<?xml version="1.0" encoding="UTF-8"?>
<svg version="1.1" xmlns="http://www.w3.org/2000/svg" width="612" height="408" viewBox="0 0 612 408">
<path d="M0 0 C2.75 2.125 2.75 2.125 5 5 C5.5259375 5.52980469 6.051875 6.05960937 6.59375 6.60546875 C9.95687584 10.07170929 12.16041728 13.13215445 12.421875 18.0625 C11.72820901 21.2482253 9.50416076 22.61752178 7.109375 24.69140625 C2.88132316 29.3187741 0.58202744 35.33784842 -2.04223633 40.97827148 C-3.01812581 43.03826149 -4.04689671 45.0649846 -5.0859375 47.09375 C-6.80091193 50.50746094 -8.1811756 53.95002395 -9.4375 57.5625 C-9.86160156 58.77679688 -10.28570312 59.99109375 -10.72265625 61.2421875 C-11.96062647 64.88416716 -13.17162107 68.53396265 -14.375 72.1875 C-16.30190571 78.03508137 -18.39845022 83.79896187 -20.5625 89.5625 C-22.57481086 94.93610939 -24.4385813 100.2678273 -25.9375 105.8125 C-27.89299698 113.02498235 -30.48264891 119.96754231 -33.07788086 126.97143555 C-34.86843709 131.82292865 -36.56325186 136.65410799 -38 141.625 C-39.92291182 148.15774953 -42.50041356 154.39297993 -45.07373047 160.68994141 C-46.9306033 165.25261771 -48.65342476 169.79466907 -50.125 174.5 C-51.73563488 179.55795865 -53.99633053 184.06058813 -56.44140625 188.76171875 C-58.13845107 192.28765899 -59.49652912 195.88356801 -60.8125 199.5625 C-63.94541844 208.24392936 -67.854637 216.49598968 -71.91259766 224.77832031 C-72.91393347 226.82415684 -73.90194793 228.87584231 -74.88671875 230.9296875 C-86.93199948 255.66988208 -86.93199948 255.66988208 -97 261 C-101.89958896 261.71266748 -105.1468181 260.94134522 -109.35546875 258.28125 C-112.09018344 256.15064093 -113.97785348 253.8187497 -116 251 C-116 250.34 -116 249.68 -116 249 C-116.66 249 -117.32 249 -118 249 C-120.9394465 243.42518766 -123.20463369 238.03442564 -125 232 C-125.18175781 231.39961914 -125.36351562 230.79923828 -125.55078125 230.18066406 C-131.59666944 210.0439558 -134.56889523 190.27030212 -135.79516602 169.28955078 C-136.00644351 165.89651984 -136.27223058 162.51016858 -136.5390625 159.12109375 C-137.06925125 151.74386687 -137.19170489 144.39452831 -137.1875 137 C-137.18789276 136.33046295 -137.18828552 135.6609259 -137.18869019 134.97109985 C-137.1814265 124.54029108 -136.62073908 114.25836341 -135.48828125 103.88671875 C-135.08074201 100.11753151 -134.89412561 96.39498218 -134.80737305 92.60693359 C-134.30814873 74.27371718 -129.49652831 55.69195762 -124.61645508 38.08984375 C-123.46833757 33.92750691 -122.56934488 29.84256225 -121.9375 25.5625 C-119.51162267 9.71640222 -119.51162267 9.71640222 -114.1875 4.875 C-108.35243239 1.44260729 -102.61645521 0.65572571 -95.9375 0.6875 C-95.25623047 0.67138672 -94.57496094 0.65527344 -93.87304688 0.63867188 C-89.17456006 0.63415844 -86.02608293 1.61952351 -82 4 C-84.45071921 10.62561699 -87.00501896 17.12830288 -90.0625 23.5 C-93.04576191 29.8480151 -95.06813806 36.27095149 -97 43 C-97.66417225 45.10495535 -98.33086014 47.20911852 -99 49.3125 C-104.83549028 68.3751016 -108.25153257 87.519657 -109.6875 107.375 C-109.75003967 108.22260895 -109.81257935 109.0702179 -109.87701416 109.94351196 C-111.85147692 137.37242363 -111.87840262 164.83478747 -109.6875 192.25 C-109.62882751 192.99833099 -109.57015503 193.74666199 -109.50970459 194.51766968 C-108.50125778 212.60975728 -108.50125778 212.60975728 -102 229 C-99.522825 228.61561078 -98.2504389 228.24543012 -96.4375 226.46875 C-91.40636221 219.57827868 -88.21267411 212.88849195 -86.55859375 204.515625 C-85.3893282 199.24984167 -83.64322131 194.13347432 -82 189 C-81.72929687 188.14664063 -81.45859375 187.29328125 -81.1796875 186.4140625 C-80.07515257 183.00744425 -78.90003016 179.77606756 -77.4375 176.5 C-75.88423518 173.0218066 -75.88423518 173.0218066 -75.2109375 169.21875 C-73.87941209 163.02467241 -71.84284461 157.05415365 -69.86148071 151.04486084 C-68.71856239 147.57724097 -67.58926139 144.10520414 -66.4609375 140.6328125 C-66.24139908 139.95767609 -66.02186066 139.28253967 -65.79566956 138.58694458 C-64.21438098 133.70627173 -62.71817616 128.80875663 -61.3125 123.875 C-59.28727187 116.77726306 -56.95658875 109.79728752 -54.58740234 102.80761719 C-52.72552855 97.28185987 -51.02161419 91.73605151 -49.4375 86.125 C-47.54433674 79.45611447 -45.12860643 73.15654668 -42.47265625 66.7578125 C-40.89095682 62.84426563 -39.65023913 58.85304335 -38.4375 54.8125 C-36.38817812 48.0022435 -33.87550869 41.50245693 -31 35 C-29.04107782 30.509541 -29.04107782 30.509541 -27.24609375 25.953125 C-25.06053266 20.11189447 -22.39303147 14.55054075 -19.5625 9 C-19.19108887 8.24541504 -18.81967773 7.49083008 -18.43701172 6.71337891 C-15.67388934 1.4098695 -15.67388934 1.4098695 -12.52734375 -0.50390625 C-8.1852559 -1.35621716 -4.28447067 -1.08530466 0 0 Z " fill="#442D1F" transform="translate(271,64)"/>
<path d="M0 0 C6.76413608 8.32509057 9.91462112 17.79729718 9.3125 28.5 C8.57491944 34.82340404 6.26477924 40.34544152 3.4375 46 C2.7775 46 2.1175 46 1.4375 46 C1.4375 46.66 1.4375 47.32 1.4375 48 C0.19014433 48.6509259 -1.06051832 49.29551669 -2.3125 49.9375 C-3.35664063 50.47697266 -3.35664063 50.47697266 -4.421875 51.02734375 C-8.52514544 52.89178597 -12.12738165 53.15963372 -16.625 53.1875 C-17.66785156 53.20167969 -18.71070313 53.21585938 -19.78515625 53.23046875 C-22.5625 53 -22.5625 53 -25.5625 51 C-24.85307842 47.34779258 -23.32424803 44.35713004 -21.625 41.0625 C-18.3207355 34.64069847 -16.28160512 30.14230922 -16.3125 22.8125 C-16.30734375 21.58144531 -16.3021875 20.35039063 -16.296875 19.08203125 C-16.23841062 15.8949039 -16.23841062 15.8949039 -18.5625 14 C-25.49203193 13.85858098 -29.68891123 17.3513461 -34.5625 22 C-39.5927022 27.62583823 -39.5927022 27.62583823 -43.5625 34 C-44.2225 34 -44.8825 34 -45.5625 34 C-46.7531727 36.37548002 -47.93563853 38.75473611 -49.11328125 41.13671875 C-54.43295182 51.85862684 -54.43295182 51.85862684 -57.3125 56.8125 C-59.28607424 60.29829347 -60.57658956 63.72426701 -61.74609375 67.546875 C-62.71622001 70.46189554 -63.90935822 73.24136047 -65.125 76.0625 C-67.08842397 80.68127747 -68.52489481 85.09495729 -69.5625 90 C-68.3559375 88.453125 -68.3559375 88.453125 -67.125 86.875 C-63.49192447 82.63355569 -59.3081934 79.87415234 -54.5625 77 C-53.9746875 76.6184375 -53.386875 76.236875 -52.78125 75.84375 C-45.28233161 71.17461213 -36.36866052 68.59302428 -27.5625 70 C-23.11524597 71.4215418 -18.83629118 73.12435497 -14.5625 75 C-14.5625 75.66 -14.5625 76.32 -14.5625 77 C-14.005625 77.226875 -13.44875 77.45375 -12.875 77.6875 C-4.05018974 82.69617609 -1.1470459 91.78810933 1.4375 101 C2.07507319 104.01540764 2.3277341 106.9217825 2.4375 110 C2.47746094 111.10988281 2.51742187 112.21976562 2.55859375 113.36328125 C2.75485842 124.48109744 2.10940327 135.43599258 -1.5625 146 C-1.8778536 147.4115828 -2.17160412 148.82827103 -2.4375 150.25 C-3.52970313 155.42034867 -5.48017549 160.15809009 -7.5625 165 C-8.2225 165 -8.8825 165 -9.5625 165 C-9.8409375 166.36125 -9.8409375 166.36125 -10.125 167.75 C-13.01448821 177.93596564 -20.11934631 186.73838664 -27.5625 194 C-28.449375 194.886875 -29.33625 195.77375 -30.25 196.6875 C-31.6875 198.125 -33.125 199.5625 -34.5625 201 C-35.5525 201 -36.5425 201 -37.5625 201 C-37.75070312 201.58394531 -37.93890625 202.16789063 -38.1328125 202.76953125 C-40.18403726 205.96966605 -43.09911152 207.12709235 -46.4375 208.6875 C-47.06269531 208.99494141 -47.68789063 209.30238281 -48.33203125 209.61914062 C-56.26752377 213.45267137 -63.85757778 213.92179996 -72.5625 213 C-78.93150941 210.72153085 -84.17345247 207.16358533 -88.5625 202 C-89.366875 201.13375 -90.17125 200.2675 -91 199.375 C-107.62350754 178.63469905 -108.29124623 147.81234394 -105.62158203 122.60742188 C-103.95326692 108.85546481 -100.97643356 94.78347049 -95.5625 82 C-95.17191406 81.04480469 -94.78132813 80.08960938 -94.37890625 79.10546875 C-93.54217294 77.07489166 -92.69447111 75.04880015 -91.8359375 73.02734375 C-91.00434979 71.05040978 -90.19589635 69.06353966 -89.4140625 67.06640625 C-86.18945279 58.91831528 -82.02453736 51.50949536 -77.5625 44 C-76.97597656 42.97390625 -76.38945312 41.9478125 -75.78515625 40.890625 C-75.25792969 39.97796875 -74.73070312 39.0653125 -74.1875 38.125 C-73.72601563 37.32320312 -73.26453125 36.52140625 -72.7890625 35.6953125 C-72.38429688 35.13585937 -71.97953125 34.57640625 -71.5625 34 C-70.9025 34 -70.2425 34 -69.5625 34 C-69.45808594 33.42765625 -69.35367188 32.8553125 -69.24609375 32.265625 C-68.45090501 29.63014232 -67.28348509 27.93968692 -65.625 25.75 C-65.10035156 25.04359375 -64.57570313 24.3371875 -64.03515625 23.609375 C-63.54917969 23.07828125 -63.06320312 22.5471875 -62.5625 22 C-61.9025 22 -61.2425 22 -60.5625 22 C-60.16804688 21.12214844 -60.16804688 21.12214844 -59.765625 20.2265625 C-54.85923698 11.14655869 -42.96125071 2.64101303 -33.49609375 -1.265625 C-30.85302287 -2.01553663 -28.27339905 -2.56486372 -25.5625 -3 C-24.304375 -3.268125 -23.04625 -3.53625 -21.75 -3.8125 C-14.96274178 -4.47295784 -5.6636217 -4.14841901 0 0 Z " fill="#452D1F" transform="translate(367.5625,65)"/>
<path d="M0 0 C3.53369443 0.01166577 7.06641532 -0.00906583 10.59998226 -0.03791714 C14.01535655 -0.06066064 17.43049916 -0.05382029 20.84594727 -0.05004883 C22.73493996 -0.0668998 22.73493996 -0.0668998 24.66209412 -0.08409119 C35.49038065 0.00250313 35.49038065 0.00250313 40.25610352 4.44604492 C44.18888569 9.73495888 44.68012049 14.979786 44.25610352 21.44604492 C42.95004831 27.12062963 41.07940862 32.33720711 38.25610352 37.44604492 C37.59610352 37.44604492 36.93610352 37.44604492 36.25610352 37.44604492 C35.99442383 38.18338867 35.73274414 38.92073242 35.46313477 39.68041992 C34.24329799 42.47538575 32.89007859 44.36545392 30.94360352 46.69604492 C28.08215919 50.27431924 25.83663404 53.82970513 23.69750977 57.86791992 C21.87401649 61.12945261 19.85445397 64.25249823 17.81860352 67.38354492 C12.27511303 75.93992532 7.11719347 84.59864238 2.36621094 93.62402344 C0.01098202 98.08351885 -2.45864074 102.46183001 -4.99389648 106.82104492 C-7.46619545 111.09223125 -9.71224314 115.35705145 -11.61889648 119.91088867 C-13.19747466 123.46817075 -14.98062765 126.91494379 -16.74389648 130.38354492 C-19.35575183 135.54477104 -21.76925534 140.68680621 -23.81811523 146.10229492 C-24.84977449 148.71409051 -26.03794194 151.22276135 -27.24389648 153.75854492 C-30.02968379 159.82423471 -31.89955689 166.04249783 -33.74389648 172.44604492 C-34.10741211 173.60620117 -34.47092773 174.76635742 -34.84545898 175.96166992 C-37.99183935 186.23833672 -39.58861941 195.78764582 -37.74389648 206.44604492 C-43.90728833 209.83818196 -49.62211532 210.87454981 -56.55639648 210.94604492 C-57.28528076 210.9640918 -58.01416504 210.98213867 -58.76513672 211.00073242 C-63.70644242 210.94618886 -66.29125294 209.97102957 -69.74389648 206.44604492 C-73.13858739 199.65666311 -71.0068791 190.4400486 -68.7980957 183.53344727 C-67.51686545 179.80955581 -66.16369692 176.11922359 -64.74389648 172.44604492 C-64.35331055 171.42768555 -63.96272461 170.40932617 -63.56030273 169.36010742 C-62.95468366 167.82838603 -62.33814546 166.30083016 -61.70092773 164.78198242 C-60.8829773 162.78551565 -60.13068179 160.76236296 -59.39233398 158.73510742 C-57.69338926 154.18309815 -55.65854736 149.82367317 -53.55639648 145.44604492 C-53.16057373 144.61717773 -52.76475098 143.78831055 -52.35693359 142.93432617 C-48.58146637 135.05613932 -44.72427302 127.22270335 -40.74389648 119.44604492 C-40.33993652 118.65601074 -39.93597656 117.86597656 -39.51977539 117.05200195 C-30.58264915 99.64205978 -30.58264915 99.64205978 -25.99780273 93.33276367 C-24.61156215 91.3356744 -24.61156215 91.3356744 -23.31811523 88.53979492 C-21.77295665 85.50315572 -20.0462188 82.97171502 -17.99389648 80.25854492 C-15.19541844 76.49136294 -12.58873873 72.68621228 -10.11889648 68.69604492 C-7.67901989 64.7766093 -5.05543566 61.36831494 -1.96655273 57.94995117 C-0.346191 55.95685447 0.51507471 53.89143999 1.25610352 51.44604492 C1.91610352 51.44604492 2.57610352 51.44604492 3.25610352 51.44604492 C3.33860352 50.86854492 3.42110352 50.29104492 3.50610352 49.69604492 C4.25610352 47.44604492 4.25610352 47.44604492 6.08422852 45.64526367 C8.43290124 43.26702133 10.01711423 40.85811599 11.75610352 38.00854492 C14.04784904 34.26362439 16.48349908 30.84930324 19.25610352 27.44604492 C20.24610352 25.96104492 20.24610352 25.96104492 21.25610352 24.44604492 C-2.15859856 20.77315048 -31.01539606 23.46657696 -51.18139648 36.75854492 C-51.79885742 37.22905273 -52.41631836 37.69956055 -53.05249023 38.18432617 C-54.86147212 39.53375146 -56.70358236 40.49090886 -58.74389648 41.44604492 C-63.31294124 31.16569422 -61.99326661 23.26057928 -59.10717773 12.54760742 C-57.01495704 7.78765547 -53.44133142 5.40226732 -48.74389648 3.44604492 C-32.67830723 -0.03278439 -16.35680216 -0.05666091 0 0 Z " fill="#442D1F" transform="translate(458.743896484375,63.553955078125)"/>
</svg>