<?xml version="1.0" encoding="UTF-8"?>
<svg xmlns="http://www.w3.org/2000/svg" id="Layer_3" data-name="Layer 3" viewBox="0 0 64 64" width="512" height="512"><path d="M52.792,5.391A1,1,0,0,0,52,5H36.586L26.359,1.066A.943.943,0,0,0,25.917,1l-24,2A1,1,0,0,0,1,4V28a1,1,0,0,0,.641.934L4,29.841V36a3,3,0,0,0,6,0v-.127a4.014,4.014,0,0,0,2.807-2.645l1.834.706a.977.977,0,0,0,.442.062l17.954-1.5,5.2,6.146A1,1,0,0,0,39,39h6v3a3,3,0,0,0,4,2.829V47a3,3,0,0,0,6,0V39h1a1,1,0,0,0,.954-.7l6-19a1,1,0,0,0-.162-.91ZM51.508,7l8.461,11H45.464L36.156,7ZM14,31.544l-1.639-.631a1,1,0,0,0-1.361.94V32a2,2,0,0,1-2,2,1,1,0,0,0-1,1v1a1,1,0,0,1-2,0V25H4v2.7l-1-.385V5.456L14,9.687ZM6.434,4.634,25.855,3.016l7.168,2.757-.234.742L15.147,7.985ZM16,31.913V9.92L32.138,8.575,27.046,24.7a1,1,0,0,0,.191.947l4.214,4.98ZM38.592,35.97,29.12,24.775,34.408,8.029l9.473,11.2ZM55.267,37H54a1,1,0,0,0-1,1v9a1,1,0,0,1-2,0V42a1,1,0,0,0-2,0,1,1,0,0,1-2,0V38a1,1,0,0,0-1-1H40.364l5.369-17h14.9Z"/><path d="M22,26a1,1,0,0,1-2,0V14H18V26a3,3,0,0,0,6,0V24H22Z"/><path d="M7,58a4,4,0,0,0,4-4c0-1.874-2.646-5.8-3.177-6.568a1.038,1.038,0,0,0-1.646,0C5.646,48.2,3,52.126,3,54A4,4,0,0,0,7,58Zm0-8.179c1.067,1.7,2,3.517,2,4.179a2,2,0,0,1-4,0C5,53.338,5.933,51.525,7,49.821Z"/><path d="M34,46c0-1.874-2.646-5.8-3.177-6.568a1.038,1.038,0,0,0-1.646,0C28.646,40.2,26,44.126,26,46a4,4,0,0,0,8,0Zm-6,0c0-.662.933-2.475,2-4.179,1.067,1.7,2,3.517,2,4.179a2,2,0,0,1-4,0Z"/><path d="M49,59c0-1.874-2.646-5.8-3.177-6.568a1.038,1.038,0,0,0-1.646,0C43.646,53.2,41,57.126,41,59a4,4,0,0,0,8,0Zm-6,0c0-.662.933-2.475,2-4.179,1.067,1.7,2,3.517,2,4.179a2,2,0,0,1-4,0Z"/></svg>
