<svg version="1.1" id="Capa_1" xmlns="http://www.w3.org/2000/svg" xmlns:xlink="http://www.w3.org/1999/xlink" x="0px" y="0px" viewBox="0 0 512 512" style="enable-background:new 0 0 512 512;" xml:space="preserve">
<g>
	<g>
		<path style="fill:none;stroke:#000000;stroke-width:15;stroke-linecap:round;stroke-linejoin:round;stroke-miterlimit:10;" d="&#10;&#9;&#9;&#9;M300.889,179.729h-26.267c-2.306,0-3.747,2.496-2.594,4.493l15.521,26.883h113.154l15.521-26.883&#10;&#9;&#9;&#9;c1.153-1.997-0.288-4.493-2.594-4.493h-77.741"/>
		<path style="fill:none;stroke:#000000;stroke-width:15;stroke-linecap:round;stroke-linejoin:round;stroke-miterlimit:10;" d="&#10;&#9;&#9;&#9;M413.63,211.105H274.622c-2.306,0-3.747,2.496-2.594,4.493l47.915,82.992h48.365l47.915-82.992&#10;&#9;&#9;&#9;C417.377,213.601,415.936,211.105,413.63,211.105z"/>
		<path style="fill:none;stroke:#000000;stroke-width:15;stroke-linecap:round;stroke-linejoin:round;stroke-miterlimit:10;" d="&#10;&#9;&#9;&#9;M442.825,341.571h-31.004v88.961h31.004c8.271,0,14.976-6.705,14.976-14.976v-59.009&#10;&#9;&#9;&#9;C457.801,348.276,451.096,341.571,442.825,341.571z"/>
		<path style="fill:none;stroke:#000000;stroke-width:15;stroke-linecap:round;stroke-linejoin:round;stroke-miterlimit:10;" d="&#10;&#9;&#9;&#9;M277.879,408.608v63.906h133.942V326.577H262.641c-2.423,0-3.844,2.728-2.454,4.713l14.985,21.406&#10;&#9;&#9;&#9;c1.762,2.517,2.707,5.516,2.707,8.589v12.323"/>
		
			<rect x="277.879" y="430.532" style="fill:none;stroke:#000000;stroke-width:15;stroke-linecap:round;stroke-linejoin:round;stroke-miterlimit:10;" width="133.942" height="41.982"/>
		<path style="fill:none;stroke:#000000;stroke-width:15;stroke-linecap:round;stroke-linejoin:round;stroke-miterlimit:10;" d="&#10;&#9;&#9;&#9;M308.866,326.577v20.997c0,2.757,2.235,4.992,4.992,4.992h61.984c2.757,0,4.992-2.235,4.992-4.992v-20.997H308.866z"/>
		<path style="fill:none;stroke:#000000;stroke-width:15;stroke-linecap:round;stroke-linejoin:round;stroke-miterlimit:10;" d="&#10;&#9;&#9;&#9;M456.573,504.5H233.128c-2.757,0-4.992-2.235-4.992-4.992v-22.002c0-2.757,2.235-4.992,4.992-4.992h223.445&#10;&#9;&#9;&#9;c2.757,0,4.992,2.235,4.992,4.992v22.002C461.565,502.265,459.33,504.5,456.573,504.5z"/>
		<path style="fill:none;stroke:#000000;stroke-width:15;stroke-linecap:round;stroke-linejoin:round;stroke-miterlimit:10;" d="&#10;&#9;&#9;&#9;M172.539,176.955l10.49,10.49c9.763,9.763,25.592,9.763,35.355,0l32.958-32.958c4.688-4.688,11.047-7.322,17.678-7.322l16.823,0"/>
		<path style="fill:none;stroke:#000000;stroke-width:15;stroke-linecap:round;stroke-linejoin:round;stroke-miterlimit:10;" d="&#10;&#9;&#9;&#9;M160.187,27.976L145.56,13.349c-7.798-7.798-20.442-7.798-28.24,0L90.445,40.223"/>
		
			<line style="fill:none;stroke:#000000;stroke-width:15;stroke-linecap:round;stroke-linejoin:round;stroke-miterlimit:10;" x1="344.85" y1="352.566" x2="344.85" y2="376.419"/>
		
			<line style="fill:none;stroke:#000000;stroke-width:15;stroke-linecap:round;stroke-linejoin:round;stroke-miterlimit:10;" x1="344.85" y1="399.379" x2="344.85" y2="402.378"/>
		<g>
			<path style="fill:none;stroke:#000000;stroke-width:15;stroke-linecap:round;stroke-linejoin:round;stroke-miterlimit:10;" d="&#10;&#9;&#9;&#9;&#9;M277.879,326.577h133.942v-18.004c0-5.514-4.47-9.984-9.984-9.984H287.864c-5.514,0-9.984,4.47-9.984,9.984V326.577z"/>
		</g>
		<path style="fill:none;stroke:#000000;stroke-width:15;stroke-linecap:round;stroke-linejoin:round;stroke-miterlimit:10;" d="&#10;&#9;&#9;&#9;M91.897,153.349l47.525,47.525c7.391,7.391,19.887,5.129,24.219-4.382l28.99-63.65c1.238-2.718,2.954-5.192,5.066-7.304&#10;&#9;&#9;&#9;l26.496-26.496c1.95-1.95,1.95-5.11,0-7.06l-64.006-64.006l-30.026,30.026c-2.112,2.112-4.586,3.828-7.304,5.066l-63.65,28.99&#10;&#9;&#9;&#9;c-9.512,4.332-11.773,16.829-4.382,24.219L67.148,128.6"/>
		<path style="fill:none;stroke:#000000;stroke-width:15;stroke-linecap:round;stroke-linejoin:round;stroke-miterlimit:10;" d="&#10;&#9;&#9;&#9;M234.302,56.914l-35.577-35.577c-2.737-2.737-7.412-1.453-8.368,2.298l-7.005,27.506l20.952,20.951l27.66-6.802&#10;&#9;&#9;&#9;C235.74,64.363,237.052,59.664,234.302,56.914z"/>
	</g>
</g>
<g>
</g>
<g>
</g>
<g>
</g>
<g>
</g>
<g>
</g>
<g>
</g>
<g>
</g>
<g>
</g>
<g>
</g>
<g>
</g>
<g>
</g>
<g>
</g>
<g>
</g>
<g>
</g>
<g>
</g>
</svg>