<svg enable-background="new 0 0 128 128" viewBox="0 0 128 128" xmlns="http://www.w3.org/2000/svg"><g id="Layer_1"><g><path d="m108.8013 91.1314087-8.9617996-18.603096c-.0262985-.0547028-.055603-.108902-.0868988-.1612015-1.6166-2.6938019-4.5726013-4.3671112-7.7136993-4.3671112h-6.588501c-.641304-2.1320877-1.1100998-4.1582909-1.3208008-6h3.8703995c1.1044998 0 2-.8954887 2-2 0-1.1044884-.8955002-2-2-2h-6-4.6007996l13.3492966-24.0287895c.3438034-.6190987.3345032-1.3745003-.0248947-1.9853992-.3592987-.6108113-1.0150986-.9858113-1.7236023-.9858113h-3.7637024l3.552803-7.1054878c.0082016-.0163994.0084-.0347996.0161972-.0514011.0792007-.1691113.135704-.3432999.1647034-.5216999.0045013-.0282001.0041962-.0557995.0075989-.0839996.0199966-.1686001.018898-.3367996-.0036011-.5035-.0034027-.0247002-.0031967-.0489998-.0074997-.0734997-.0312958-.1809998-.0902023-.3549995-.169899-.5217991-.0133972-.0278015-.0280991-.0538006-.0428009-.0810013-.1501999-.2803993-.3611984-.5327988-.6444016-.7216988-5.6103973-3.7402-10.7270965-5.3359127-17.1093978-5.3359127-5.1724014 0-10.1801987 1.2725124-15.0228996 2.5034122-4.8296013 1.2275887-9.8242989 2.4965878-14.9771004 2.4965878-.1721992 0-.3363991.028511-.4958.0694122-.0381012.0098-.0740013.0226994-.1114998.0347004-.1458015.0466995-.2841988.107399-.4132996.1844997-.0219002.0130997-.0451012.0222988-.0666008.0361996-.1455002.0946999-.2743988.2098999-.3904991.3379993-.0121994.0135002-.0284996.0211887-.0404015.0349998-.0153008.0179005-.0221977.0403004-.0368004.0587006-.1019974.1272011-.1913986.2637997-.2600975.4137001-.005703.0123997-.0139999.0233002-.0194016.0357876-.0671997.1547127-.1091003.3212128-.1352997.4933128-.0069008.0450001-.0098.0891991-.0135994.1345997-.0046004.0557004-.0167006.1091996-.0167006.1660882 0 .0887127.0149002.1735115.0261002.2592125.0043983.0335999.0041008.0664997.0102005.0999985.031601.17379.0872002.3376007.1606979.4926014.0065002.0137997.007103.0289993.0139008.0426998l3.5527992 7.1054878h-3.7636986c-.7084999 0-1.3642998.375-1.7235985.9858112-.3594017.610899-.3687019 1.3663006-.0249023 1.9853992l13.3493004 24.0287896h-10.6007996c-.1306 0-.2579002.0144119-.382.0385094-.0439987.0086021-.0848007.0239029-.1276016.035202-.0781975.0206985-.155899.0418015-.2300987.0713997-.0475006.019001-.0914993.0430984-.1371002.0654984-.0653.0320015-.1296997.0649033-.1908989.1036034-.0438995.0278969-.0846024.0586967-.1261024.0897865-.0569.0427132-.1117973.0868111-.1638985.1352119-.0381012.0354004-.0738983.0722008-.1091995.1105003-.0480003.0521011-.0924988.1064987-.1349983.1636009-.0312004.0419998-.061203.084198-.0891037.1286888-.0372963.0596085-.0696983.1217079-.1006966.1854095-.0239029.0488014-.0480003.0969009-.0678024.1478004-.0254974.0656013-.0442009.1339989-.0629997.2028999-.0144997.053299-.030899.1053009-.0410004.1603012-.0025978.0140991-.0083008.0269966-.0105972.0412979-.0118027.0723991-.0116005.144001-.0153008.2159004-.0018998.0353014-.0106011.0685999-.0106011.1043894 0 .0062103.0018005.0119095.0018005.0181122.0010986.1285973.0131989.2552986.0382004.3787994.0048981.0243988.0149002.0466003.0206985.0705986.0233002.0968018.0508003.1919022.0879021.2834015.0179977.0443001.0418968.0849991.0628967.1277008.0335007.067997.0672035.1351967.1080017.1988983.0270004.0419998.0578003.0804901.0876999.1202011.0441017.0587006.0894012.115799.1399002.1694984.0345001.0367012.0710983.0703011.1082001.1043015.053299.0486984.1082993.094799.1669998.1377983.0427017.0312996.0861015.0601997.1313019.0881004.0585976.0360985.1191978.0685883.1820984.0988007.0519981.0251007.1040001.0485001.1584015.0691986.0252991.0095024.0477982.0235023.073597.0321007 2.1177025.7060013 3.5703011 1.884201 4.2016029 3.4071999.5878983 1.419899.4575996 3.1694031-.3584023 4.8007965-.0405006.0810013-.0751991.1650009-.1044998.2509003-1.3812981 4.065506-3.5 8.1368027-5.5482979 12.0748062-3.3726005 6.4818954-6.5581016 12.6039963-6.5581016 18.5687866 0 7.1445084 6.1259995 11 11.8900986 11h42.1996994c5.9185028 0 11.910202-3.7782898 11.910202-11 0-4.5922928-2.902298-11.3861923-5.9750977-18.5790863-1.4450989-3.3823013-2.9744034-6.9625015-4.2360992-10.4210052h5.2500992c1.716301 0 3.3333969.8999023 4.2401962 2.3540039l8.9187012 18.5138016c.3447037.7152862 1.0590973 1.132286 1.8031998 1.132286.2910995 0 .586998-.064003.8666992-.1986923.9951019-.4794998 1.4131012-1.6747971.9336013-2.669899zm-52.8013-29.1314087h16v4h-16zm.9623985-39.6195889c4.8164025-1.2241992 9.3652001-2.3804111 14.0376015-2.3804111 3.123497 0 6.836998.3602123 11.3535995 2.6072121-2.031601.6294003-4.8376007 1.3360004-8.3315964 1.8151989-5.2769012.7245884-12.9578018 1.021801-22.3563042-.7585983 1.7917024-.3970013 3.5555001-.8410016 5.2966996-1.2834016zm-12.1186981 3.8349c17.928299 4.7866898 31.3217964 2.4336014 38.1055031.4141006l-2.1855011 4.3705883h-33.527401zm37.1506004 8.7846889c.0013962 0 .0028.0005112.0041962.0005112.0013046 0 .0024033-.0005112.0036011-.0005112h3.598999l-12.7779007 23h-17.6463966l-12.7779007-23zm3.0954972 73h-42.1996994c-3.8002968 0-7.8900986-2.1903915-7.8900986-7 0-.9644928.1133995-1.956192.3151016-2.9713898.4906998.0108032.9885979.0318985 1.4720001.0318985 8.4286995 0 15.7265968-1.5970993 22.8056984-3.1458969 10.9678001-2.4001999 20.474102-4.464798 32.0183983-.2827988.850502 2.5099946 1.3888016 4.6992951 1.3888016 6.368187 0 4.8354111-3.972702 7-7.910202 7zm4.7182007-18.1460876c-11.2513962-3.1661987-20.9115982-1.0709152-31.0701981 1.1529007-6.9452019 1.5197983-14.1191025 3.0643997-22.2537003 3.0326004 1.1590004-3.1044998 2.8630981-6.3806 4.6222992-9.7621002 2.097702-4.0322037 4.266201-8.2002029 5.7447014-12.5097046 1.277298-2.6357956 1.4291992-5.5414963.4134979-7.9936981-.2274971-.5493012-.5458984-1.1562005-.9906997-1.7739106h5.7261009v6c0 1.1045074.8955002 2 2 2h20c1.1044998 0 2-.8954926 2-2v-6h4.0990982c.6138 6.4648132 3.9810028 14.3467102 7.2471008 21.9927139.8574982 2.0067978 1.6987992 3.9783936 2.4617997 5.8611985z"/><path d="m67 79h-6c-1.1044998 0-2 .8955078-2 2 0 1.1045074.8955002 2 2 2h6c1.1044998 0 2-.8954926 2-2 0-1.1044922-.8955002-2-2-2z"/></g></g><g id="Layer_2"/><g id="Layer_3"/><g id="Layer_4"/><g id="Layer_5"/></svg>