<?xml version="1.0" encoding="UTF-8"?>
<!DOCTYPE svg PUBLIC "-//W3C//DTD SVG 1.1//EN" "http://www.w3.org/Graphics/SVG/1.1/DTD/svg11.dtd">
<svg xmlns="http://www.w3.org/2000/svg" version="1.1" width="649px" height="384px" style="shape-rendering:geometricPrecision; text-rendering:geometricPrecision; image-rendering:optimizeQuality; fill-rule:evenodd; clip-rule:evenodd" xmlns:xlink="http://www.w3.org/1999/xlink">
<g><path style="opacity:1" fill="#765c40" d="M 250.5,90.5 C 250.389,89.8826 250.056,89.3826 249.5,89C 250.68,87.1966 252.68,85.6966 255.5,84.5C 255.069,83.7065 254.735,82.8732 254.5,82C 255.703,80.6315 256.703,79.1315 257.5,77.5C 255.454,74.7677 254.62,71.7677 255,68.5C 256.333,67.1667 257.667,67.1667 259,68.5C 259.494,70.1341 259.66,71.8008 259.5,73.5C 261.833,73.5 264.167,73.5 266.5,73.5C 266.08,71.326 266.08,69.326 266.5,67.5C 264.657,67.2448 262.657,67.0781 260.5,67C 259.028,63.4482 260.362,61.7815 264.5,62C 263.217,58.9517 261.551,58.785 259.5,61.5C 256.815,58.6955 255.148,59.3621 254.5,63.5C 253.993,61.1719 252.659,58.8385 250.5,56.5C 248.929,57.3094 247.262,57.6427 245.5,57.5C 244.84,61.5121 242.506,63.5121 238.5,63.5C 239.244,66.9496 237.91,68.6162 234.5,68.5C 234.719,69.675 234.386,70.675 233.5,71.5C 230.141,73.8169 226.974,76.4836 224,79.5C 223.212,82.9627 221.546,85.9627 219,88.5C 218.722,87.5842 218.222,86.9175 217.5,86.5C 218.069,83.6655 219.736,81.9988 222.5,81.5C 235.14,63.3552 250.473,47.5219 268.5,34C 271.167,33.3333 273.833,33.3333 276.5,34C 284.798,37.2996 290.798,42.9663 294.5,51C 279.364,63.6359 264.697,76.8025 250.5,90.5 Z"/></g>
<g><path style="opacity:1" fill="#74593c" d="M 81.5,52.5 C 82.7498,52.5774 83.5831,53.244 84,54.5C 85.4659,52.6751 87.2992,52.1751 89.5,53C 96.1195,55.7959 101.786,59.7959 106.5,65C 105.576,65.85 105.576,66.85 106.5,68C 104.855,69.032 104.522,70.1987 105.5,71.5C 104.696,72.9411 104.029,74.4411 103.5,76C 103.995,78.0094 103.995,80.1761 103.5,82.5C 103.672,83.4916 103.338,84.1583 102.5,84.5C 101.599,86.7572 99.932,88.2572 97.5,89C 98.6943,91.4444 98.1943,93.6111 96,95.5C 95.3897,98.8273 94.8897,102.161 94.5,105.5C 93.0876,113.157 90.7542,120.491 87.5,127.5C 87.6782,124.121 87.6782,120.955 87.5,118C 88.1667,117.667 88.8333,117.333 89.5,117C 89.6427,114.959 89.3094,112.792 88.5,110.5C 89.962,107.938 90.962,105.605 91.5,103.5C 90.3128,102.481 89.3128,101.314 88.5,100C 89.9733,99.2904 90.6399,98.1238 90.5,96.5C 89.0695,96.5792 87.7362,96.2458 86.5,95.5C 85.0295,98.3209 85.3628,100.821 87.5,103C 85.8934,104.049 85.2267,105.549 85.5,107.5C 83.5165,107.617 81.8498,106.95 80.5,105.5C 78.9991,106.752 77.3325,107.752 75.5,108.5C 76.8962,109.852 77.5629,111.519 77.5,113.5C 76.2253,118.146 75.0587,122.812 74,127.5C 73.5004,120.842 73.3337,114.175 73.5,107.5C 72.1779,107.33 71.0113,107.663 70,108.5C 69.3581,110.762 68.5248,112.929 67.5,115C 66.9286,117.855 66.9286,120.855 67.5,124C 64.5119,127.252 63.8452,130.918 65.5,135C 63.8719,141.951 62.2053,148.951 60.5,156C 60.6004,158.302 61.267,160.302 62.5,162C 60.6992,162.317 60.3659,162.984 61.5,164C 57.6067,168.607 56.6067,173.773 58.5,179.5C 56.489,184.285 54.489,188.951 52.5,193.5C 58.7544,152.229 66.421,111.229 75.5,70.5C 76.547,68.8494 77.7137,67.1828 79,65.5C 79.4198,61.048 80.2532,56.7147 81.5,52.5 Z"/></g>
<g><path style="opacity:1" fill="#a29486" d="M 600.5,62.5 C 590.514,63.1659 580.514,63.4993 570.5,63.5C 578.497,62.6448 586.664,61.9782 595,61.5C 597.033,61.5056 598.866,61.8389 600.5,62.5 Z"/></g>
<g><path style="opacity:1" fill="#715637" d="M 250.5,90.5 C 250.5,90.8333 250.5,91.1667 250.5,91.5C 247.939,88.5945 245.939,88.9279 244.5,92.5C 245.167,92.8333 245.833,93.1667 246.5,93.5C 245.311,94.4287 243.978,94.762 242.5,94.5C 242.719,93.325 242.386,92.325 241.5,91.5C 239.605,92.973 237.939,94.6397 236.5,96.5C 234.929,95.6906 233.262,95.3573 231.5,95.5C 231.596,89.6752 229.929,89.5086 226.5,95C 228.384,95.2163 230.051,95.883 231.5,97C 229.89,98.4947 228.224,98.6613 226.5,97.5C 225.117,100.076 224.283,99.7423 224,96.5C 221.679,97.3613 220.513,96.3613 220.5,93.5C 219.167,93.5 217.833,93.5 216.5,93.5C 215.62,91.3888 215.62,89.3888 216.5,87.5C 216.5,86.8333 216.833,86.5 217.5,86.5C 218.222,86.9175 218.722,87.5842 219,88.5C 221.546,85.9627 223.212,82.9627 224,79.5C 226.974,76.4836 230.141,73.8169 233.5,71.5C 234.386,70.675 234.719,69.675 234.5,68.5C 237.91,68.6162 239.244,66.9496 238.5,63.5C 242.506,63.5121 244.84,61.5121 245.5,57.5C 247.262,57.6427 248.929,57.3094 250.5,56.5C 252.659,58.8385 253.993,61.1719 254.5,63.5C 255.148,59.3621 256.815,58.6955 259.5,61.5C 261.551,58.785 263.217,58.9517 264.5,62C 260.362,61.7815 259.028,63.4482 260.5,67C 262.657,67.0781 264.657,67.2448 266.5,67.5C 266.08,69.326 266.08,71.326 266.5,73.5C 264.167,73.5 261.833,73.5 259.5,73.5C 259.66,71.8008 259.494,70.1341 259,68.5C 257.667,67.1667 256.333,67.1667 255,68.5C 254.62,71.7677 255.454,74.7677 257.5,77.5C 256.703,79.1315 255.703,80.6315 254.5,82C 254.735,82.8732 255.069,83.7065 255.5,84.5C 252.68,85.6966 250.68,87.1966 249.5,89C 250.056,89.3826 250.389,89.8826 250.5,90.5 Z"/></g>
<g><path style="opacity:1" fill="#7a664e" d="M 381.5,63.5 C 376.821,63.3342 372.155,63.5008 367.5,64C 366.333,64.5 365.5,65.3333 365,66.5C 364.333,63.8333 363.667,63.8333 363,66.5C 362.5,66 362,65.5 361.5,65C 358.167,64.3333 354.833,64.3333 351.5,65C 347.903,65.8344 344.736,67.3344 342,69.5C 339.035,68.5237 336.202,68.1904 333.5,68.5C 335.493,66.8368 337.826,65.6701 340.5,65C 349.088,63.0491 357.754,61.5491 366.5,60.5C 371.725,61.0485 376.725,62.0485 381.5,63.5 Z"/></g>
<g><path style="opacity:1" fill="#907d6a" d="M 81.5,52.5 C 80.2532,56.7147 79.4198,61.048 79,65.5C 77.7137,67.1828 76.547,68.8494 75.5,70.5C 76.1283,63.9481 78.1283,57.9481 81.5,52.5 Z"/></g>
<g><path style="opacity:1" fill="#745b3f" d="M 600.5,62.5 C 610.148,64.4691 616.815,70.1357 620.5,79.5C 619.639,82.5273 618.139,85.194 616,87.5C 607.142,96.6178 598.309,105.618 589.5,114.5C 590.928,109.562 593.761,105.562 598,102.5C 599.312,98.6892 601.812,96.0226 605.5,94.5C 606.036,92.0306 607.036,89.864 608.5,88C 607.051,84.3924 607.217,80.8924 609,77.5C 610.975,78.478 612.642,79.8113 614,81.5C 614.5,81.1667 615,80.8333 615.5,80.5C 613.739,74.2987 610.072,69.6321 604.5,66.5C 603.646,67.5217 602.646,68.3551 601.5,69C 598.183,69.4983 594.85,69.665 591.5,69.5C 591.5,67.8333 591.5,66.1667 591.5,64.5C 589.436,64.687 587.436,65.187 585.5,66C 586.5,66.3333 587.5,66.6667 588.5,67C 579.324,68.5747 579.324,69.5747 588.5,70C 586.048,70.2895 583.715,70.9562 581.5,72C 578.848,74.8057 576.515,77.8057 574.5,81C 574.667,81.5 574.833,82 575,82.5C 576.062,81.9032 577.228,81.5698 578.5,81.5C 579.824,83.1047 582.157,83.7714 585.5,83.5C 585.693,79.551 586.193,79.551 587,83.5C 587.2,87.7533 587.7,91.92 588.5,96C 587.663,97.0113 587.33,98.1779 587.5,99.5C 586.178,99.67 585.011,99.3366 584,98.5C 583.695,103.816 581.361,107.816 577,110.5C 574.855,108.105 575.022,105.938 577.5,104C 576.5,103.667 575.5,103.333 574.5,103C 573.884,100.821 572.717,98.9882 571,97.5C 568.856,101.302 566.356,104.802 563.5,108C 564.451,108.718 564.617,109.551 564,110.5C 561.898,110.546 559.898,111.546 558,113.5C 557.837,115.676 557.004,117.509 555.5,119C 555.833,119.333 556.167,119.667 556.5,120C 555.257,121.154 554.257,122.488 553.5,124C 549.012,124.733 548.012,126.733 550.5,130C 544.896,132.395 541.23,136.561 539.5,142.5C 544.052,145.001 545.719,148.667 544.5,153.5C 543.833,154.167 543.167,154.833 542.5,155.5C 540.65,152.028 539.317,148.361 538.5,144.5C 537.219,147.508 535.719,150.508 534,153.5C 532.429,155.923 530.263,157.256 527.5,157.5C 527.007,159.806 526.674,162.139 526.5,164.5C 527.675,164.719 528.675,164.386 529.5,163.5C 530.214,161.189 531.214,159.022 532.5,157C 533.448,156.517 534.448,156.351 535.5,156.5C 535.5,154.833 535.5,153.167 535.5,151.5C 536.5,151.5 537.5,151.5 538.5,151.5C 538.833,154.167 539.167,156.833 539.5,159.5C 540.833,159.5 542.167,159.5 543.5,159.5C 543.351,160.552 543.517,161.552 544,162.5C 546.007,161.331 548.173,160.665 550.5,160.5C 546.215,166.786 541.549,172.786 536.5,178.5C 536.5,176.5 536.5,174.5 536.5,172.5C 534.533,172.739 532.699,172.406 531,171.5C 527.432,167.687 524.932,163.354 523.5,158.5C 540.174,134.52 557.84,111.187 576.5,88.5C 577.289,88.2172 577.956,87.7172 578.5,87C 575.304,86.1955 572.304,86.3622 569.5,87.5C 561.179,88.3134 552.846,88.9801 544.5,89.5C 540.878,89.322 537.544,89.9886 534.5,91.5C 523.572,93.5722 512.572,95.9056 501.5,98.5C 500.294,97.1196 500.627,95.9529 502.5,95C 509.883,93.7126 517.216,91.8793 524.5,89.5C 528.177,91.921 531.51,91.421 534.5,88C 546.665,87.3842 558.665,85.7176 570.5,83C 567.167,82.6667 563.833,82.3333 560.5,82C 560.833,81.6667 561.167,81.3333 561.5,81C 560.54,79.5806 559.707,78.0806 559,76.5C 556.618,77.8663 554.452,77.533 552.5,75.5C 549.112,77.3237 545.446,78.3237 541.5,78.5C 539.404,76.8089 537.404,76.6422 535.5,78C 532.854,78.4974 530.187,78.6641 527.5,78.5C 527.808,80.924 527.474,83.2573 526.5,85.5C 525.672,84.5853 524.672,83.9186 523.5,83.5C 519.7,85.5876 515.7,85.9209 511.5,84.5C 516.077,82.8557 520.744,81.5224 525.5,80.5C 522.198,79.7718 518.865,79.6051 515.5,80C 516.308,79.6924 516.975,79.1924 517.5,78.5C 514.268,77.4192 511.435,75.7525 509,73.5C 506.783,74.5317 504.617,74.5317 502.5,73.5C 501.522,73.9767 500.689,74.6433 500,75.5C 497.8,74.0099 495.966,74.3432 494.5,76.5C 495.351,79.6124 496.517,79.9458 498,77.5C 501.556,80.5135 504.556,80.1802 507,76.5C 507.667,79.1667 508.333,79.1667 509,76.5C 509.635,77.9663 510.469,79.2997 511.5,80.5C 506.892,84.4697 501.559,86.1363 495.5,85.5C 488.498,84.1662 481.498,82.8329 474.5,81.5C 474.5,83.5 474.5,85.5 474.5,87.5C 473.5,87.5 472.5,87.5 471.5,87.5C 471.657,86.1266 471.49,84.7932 471,83.5C 469.578,83.4057 468.078,83.0724 466.5,82.5C 467.529,82.7036 468.529,82.2036 469.5,81C 467.482,80.4954 465.482,79.9954 463.5,79.5C 465.858,77.8714 468.524,76.7048 471.5,76C 488.624,71.8228 505.957,68.9895 523.5,67.5C 527.764,67.6558 531.764,66.9891 535.5,65.5C 547.116,64.4148 558.782,63.7482 570.5,63.5C 580.514,63.4993 590.514,63.1659 600.5,62.5 Z"/></g>
<g><path style="opacity:1" fill="#75583a" d="M 589.5,114.5 C 576.3,129.616 563.3,144.949 550.5,160.5C 548.173,160.665 546.007,161.331 544,162.5C 543.517,161.552 543.351,160.552 543.5,159.5C 542.167,159.5 540.833,159.5 539.5,159.5C 539.167,156.833 538.833,154.167 538.5,151.5C 537.5,151.5 536.5,151.5 535.5,151.5C 535.5,153.167 535.5,154.833 535.5,156.5C 534.448,156.351 533.448,156.517 532.5,157C 531.214,159.022 530.214,161.189 529.5,163.5C 528.675,164.386 527.675,164.719 526.5,164.5C 526.674,162.139 527.007,159.806 527.5,157.5C 530.263,157.256 532.429,155.923 534,153.5C 535.719,150.508 537.219,147.508 538.5,144.5C 539.317,148.361 540.65,152.028 542.5,155.5C 543.167,154.833 543.833,154.167 544.5,153.5C 545.719,148.667 544.052,145.001 539.5,142.5C 541.23,136.561 544.896,132.395 550.5,130C 548.012,126.733 549.012,124.733 553.5,124C 554.257,122.488 555.257,121.154 556.5,120C 556.167,119.667 555.833,119.333 555.5,119C 557.004,117.509 557.837,115.676 558,113.5C 559.898,111.546 561.898,110.546 564,110.5C 564.617,109.551 564.451,108.718 563.5,108C 566.356,104.802 568.856,101.302 571,97.5C 572.717,98.9882 573.884,100.821 574.5,103C 575.5,103.333 576.5,103.667 577.5,104C 575.022,105.938 574.855,108.105 577,110.5C 581.361,107.816 583.695,103.816 584,98.5C 585.011,99.3366 586.178,99.67 587.5,99.5C 587.33,98.1779 587.663,97.0113 588.5,96C 587.7,91.92 587.2,87.7533 587,83.5C 586.193,79.551 585.693,79.551 585.5,83.5C 582.157,83.7714 579.824,83.1047 578.5,81.5C 577.228,81.5698 576.062,81.9032 575,82.5C 574.833,82 574.667,81.5 574.5,81C 576.515,77.8057 578.848,74.8057 581.5,72C 583.715,70.9562 586.048,70.2895 588.5,70C 579.324,69.5747 579.324,68.5747 588.5,67C 587.5,66.6667 586.5,66.3333 585.5,66C 587.436,65.187 589.436,64.687 591.5,64.5C 591.5,66.1667 591.5,67.8333 591.5,69.5C 594.85,69.665 598.183,69.4983 601.5,69C 602.646,68.3551 603.646,67.5217 604.5,66.5C 610.072,69.6321 613.739,74.2987 615.5,80.5C 615,80.8333 614.5,81.1667 614,81.5C 612.642,79.8113 610.975,78.478 609,77.5C 607.217,80.8924 607.051,84.3924 608.5,88C 607.036,89.864 606.036,92.0306 605.5,94.5C 601.812,96.0226 599.312,98.6892 598,102.5C 593.761,105.562 590.928,109.562 589.5,114.5 Z"/></g>
<g><path style="opacity:1" fill="#7e6a54" d="M 103.5,82.5 C 103.995,80.1761 103.995,78.0094 103.5,76C 104.029,74.4411 104.696,72.9411 105.5,71.5C 104.522,70.1987 104.855,69.032 106.5,68C 105.576,66.85 105.576,65.85 106.5,65C 101.786,59.7959 96.1195,55.7959 89.5,53C 87.2992,52.1751 85.4659,52.6751 84,54.5C 83.5831,53.244 82.7498,52.5774 81.5,52.5C 81.9175,51.7784 82.5842,51.2784 83.5,51C 93.1394,50.7775 101.306,54.2775 108,61.5C 109.483,64.7024 109.817,68.0357 109,71.5C 107.348,75.3014 105.514,78.9681 103.5,82.5 Z"/></g>
<g><path style="opacity:1" fill="#c7bba9" d="M 535.5,65.5 C 531.764,66.9891 527.764,67.6558 523.5,67.5C 527.267,66.2053 531.267,65.5387 535.5,65.5 Z"/></g>
<g><path style="opacity:1" fill="#75583a" d="M 501.5,98.5 C 487.515,102.488 474.182,107.822 461.5,114.5C 460.252,113.96 459.085,113.293 458,112.5C 455.679,102.3 456.346,92.2995 460,82.5C 461.359,81.635 462.526,80.635 463.5,79.5C 465.482,79.9954 467.482,80.4954 469.5,81C 468.529,82.2036 467.529,82.7036 466.5,82.5C 468.078,83.0724 469.578,83.4057 471,83.5C 471.49,84.7932 471.657,86.1266 471.5,87.5C 472.5,87.5 473.5,87.5 474.5,87.5C 474.5,85.5 474.5,83.5 474.5,81.5C 481.498,82.8329 488.498,84.1662 495.5,85.5C 501.559,86.1363 506.892,84.4697 511.5,80.5C 510.469,79.2997 509.635,77.9663 509,76.5C 508.333,79.1667 507.667,79.1667 507,76.5C 504.556,80.1802 501.556,80.5135 498,77.5C 496.517,79.9458 495.351,79.6124 494.5,76.5C 495.966,74.3432 497.8,74.0099 500,75.5C 500.689,74.6433 501.522,73.9767 502.5,73.5C 504.617,74.5317 506.783,74.5317 509,73.5C 511.435,75.7525 514.268,77.4192 517.5,78.5C 516.975,79.1924 516.308,79.6924 515.5,80C 518.865,79.6051 522.198,79.7718 525.5,80.5C 520.744,81.5224 516.077,82.8557 511.5,84.5C 515.7,85.9209 519.7,85.5876 523.5,83.5C 524.672,83.9186 525.672,84.5853 526.5,85.5C 527.474,83.2573 527.808,80.924 527.5,78.5C 530.187,78.6641 532.854,78.4974 535.5,78C 537.404,76.6422 539.404,76.8089 541.5,78.5C 545.446,78.3237 549.112,77.3237 552.5,75.5C 554.452,77.533 556.618,77.8663 559,76.5C 559.707,78.0806 560.54,79.5806 561.5,81C 561.167,81.3333 560.833,81.6667 560.5,82C 563.833,82.3333 567.167,82.6667 570.5,83C 558.665,85.7176 546.665,87.3842 534.5,88C 531.51,91.421 528.177,91.921 524.5,89.5C 517.216,91.8793 509.883,93.7126 502.5,95C 500.627,95.9529 500.294,97.1196 501.5,98.5 Z"/></g>
<g><path style="opacity:1" fill="#765c40" d="M 381.5,63.5 C 384.988,63.7054 388.321,64.5387 391.5,66C 394.833,68 398.167,70 401.5,72C 402.823,72.8159 403.489,73.9826 403.5,75.5C 400.657,78.0613 397.823,78.0613 395,75.5C 394.075,76.0465 393.242,76.7132 392.5,77.5C 393.641,81.9156 395.307,86.0822 397.5,90C 396.89,96.3108 396.224,102.477 395.5,108.5C 395.839,101.426 395.339,94.4264 394,87.5C 390.392,78.5841 383.726,74.5841 374,75.5C 369.146,75.7943 364.312,76.2943 359.5,77C 354.651,79.5903 349.651,81.9236 344.5,84C 340.346,86.6598 336.346,89.4932 332.5,92.5C 333.768,91.213 333.435,90.213 331.5,89.5C 332.376,88.7492 333.376,88.2492 334.5,88C 329.296,87.3581 324.296,87.6914 319.5,89C 319.374,87.0257 319.208,84.859 319,82.5C 317.883,82.3349 316.716,82.0016 315.5,81.5C 313.705,83.7025 311.371,84.8692 308.5,85C 309.167,85.3333 309.833,85.6667 310.5,86C 308.462,87.236 307.295,89.0694 307,91.5C 306.586,91.0426 306.086,90.7093 305.5,90.5C 303.192,91.6411 301.359,93.3078 300,95.5C 299.667,95.1667 299.333,94.8333 299,94.5C 296.61,96.201 295.11,98.5343 294.5,101.5C 292.591,102.348 290.591,102.682 288.5,102.5C 300.582,87.4319 315.582,76.0986 333.5,68.5C 336.202,68.1904 339.035,68.5237 342,69.5C 344.736,67.3344 347.903,65.8344 351.5,65C 354.833,64.3333 358.167,64.3333 361.5,65C 362,65.5 362.5,66 363,66.5C 363.667,63.8333 364.333,63.8333 365,66.5C 365.5,65.3333 366.333,64.5 367.5,64C 372.155,63.5008 376.821,63.3342 381.5,63.5 Z"/></g>
<g><path style="opacity:1" fill="#755a3d" d="M 332.5,92.5 C 304.307,116.065 284.307,145.398 272.5,180.5C 272.167,180.5 271.833,180.5 271.5,180.5C 270.816,176.466 269.482,172.799 267.5,169.5C 269.604,169.799 271.604,169.466 273.5,168.5C 273.291,167.914 272.957,167.414 272.5,167C 274.002,166.417 275.335,165.584 276.5,164.5C 276.489,161.667 276.156,158.667 275.5,155.5C 273.516,155.617 271.85,154.95 270.5,153.5C 268.5,156.5 266.5,159.5 264.5,162.5C 262.941,163.074 261.441,163.74 260,164.5C 257.246,170.026 254.08,175.36 250.5,180.5C 249.447,179.562 248.78,178.395 248.5,177C 249.581,175.629 250.415,174.129 251,172.5C 251.333,173.167 251.667,173.833 252,174.5C 252.625,171.257 253.791,168.257 255.5,165.5C 255.067,161.958 254.067,162.125 252.5,166C 251.552,166.483 250.552,166.649 249.5,166.5C 250.54,170.609 249.04,173.942 245,176.5C 244.333,178.5 243.667,180.5 243,182.5C 242.329,181.748 241.496,181.414 240.5,181.5C 251.337,151.932 267.337,125.598 288.5,102.5C 290.591,102.682 292.591,102.348 294.5,101.5C 295.11,98.5343 296.61,96.201 299,94.5C 299.333,94.8333 299.667,95.1667 300,95.5C 301.359,93.3078 303.192,91.6411 305.5,90.5C 306.086,90.7093 306.586,91.0426 307,91.5C 307.295,89.0694 308.462,87.236 310.5,86C 309.833,85.6667 309.167,85.3333 308.5,85C 311.371,84.8692 313.705,83.7025 315.5,81.5C 316.716,82.0016 317.883,82.3349 319,82.5C 319.208,84.859 319.374,87.0257 319.5,89C 324.296,87.6914 329.296,87.3581 334.5,88C 333.376,88.2492 332.376,88.7492 331.5,89.5C 333.435,90.213 333.768,91.213 332.5,92.5 Z"/></g>
<g><path style="opacity:1" fill="#e7d2bd" d="M 569.5,87.5 C 572.304,86.3622 575.304,86.1955 578.5,87C 577.956,87.7172 577.289,88.2172 576.5,88.5C 574.393,87.5318 572.059,87.1984 569.5,87.5 Z"/></g>
<g><path style="opacity:1" fill="#765a3d" d="M 403.5,75.5 C 410.113,80.0151 414.279,86.3484 416,94.5C 420.222,111.282 418.889,127.615 412,143.5C 404.866,156.601 394.699,159.935 381.5,153.5C 380.289,152.126 379.289,150.626 378.5,149C 386.273,136.298 391.94,122.798 395.5,108.5C 396.224,102.477 396.89,96.3108 397.5,90C 395.307,86.0822 393.641,81.9156 392.5,77.5C 393.242,76.7132 394.075,76.0465 395,75.5C 397.823,78.0613 400.657,78.0613 403.5,75.5 Z"/></g>
<g><path style="opacity:1" fill="#beafa1" d="M 544.5,89.5 C 541.411,90.7846 538.078,91.4512 534.5,91.5C 537.544,89.9886 540.878,89.322 544.5,89.5 Z"/></g>
<g><path style="opacity:1" fill="#745637" d="M 87.5,127.5 C 87.5,127.833 87.5,128.167 87.5,128.5C 84.8459,131.254 82.5126,134.421 80.5,138C 81.6168,141.073 81.7835,144.24 81,147.5C 79.9635,150.753 79.2969,154.086 79,157.5C 78.0975,158.701 76.9308,159.535 75.5,160C 76.4575,164.053 75.7909,167.887 73.5,171.5C 74.7178,172.803 74.3845,173.803 72.5,174.5C 73.4756,176.123 72.9756,177.457 71,178.5C 70.5848,176.709 69.5848,175.376 68,174.5C 66.6224,177.397 64.9557,180.064 63,182.5C 62.6667,181.167 62.3333,179.833 62,178.5C 61.2556,182.727 60.4223,186.894 59.5,191C 60.5,191.5 61.5,192 62.5,192.5C 63.2208,194.686 63.8875,196.853 64.5,199C 63.2888,199.893 63.2888,200.726 64.5,201.5C 64.8333,200.333 65.1667,199.167 65.5,198C 63.1793,193.466 64.5126,191.299 69.5,191.5C 69.2812,195.484 69.2812,199.318 69.5,203C 69,203.5 68.5,204 68,204.5C 66.1551,202.65 64.1551,202.317 62,203.5C 61.6924,202.692 61.1924,202.025 60.5,201.5C 59.5344,203.396 59.2011,205.396 59.5,207.5C 69.168,204.998 71.168,207.831 65.5,216C 66.5438,219.098 66.2105,222.098 64.5,225C 65.0968,226.062 65.4302,227.228 65.5,228.5C 63.6178,235.317 62.2845,242.317 61.5,249.5C 57.0148,249.359 52.3481,249.359 47.5,249.5C 46.69,244.693 46.69,239.526 47.5,234C 49.7592,225.542 51.7592,217.209 53.5,209C 52.5286,203.928 52.1953,198.762 52.5,193.5C 54.489,188.951 56.489,184.285 58.5,179.5C 56.6067,173.773 57.6067,168.607 61.5,164C 60.3659,162.984 60.6992,162.317 62.5,162C 61.267,160.302 60.6004,158.302 60.5,156C 62.2053,148.951 63.8719,141.951 65.5,135C 63.8452,130.918 64.5119,127.252 67.5,124C 66.9286,120.855 66.9286,117.855 67.5,115C 68.5248,112.929 69.3581,110.762 70,108.5C 71.0113,107.663 72.1779,107.33 73.5,107.5C 73.3337,114.175 73.5004,120.842 74,127.5C 75.0587,122.812 76.2253,118.146 77.5,113.5C 77.5629,111.519 76.8962,109.852 75.5,108.5C 77.3325,107.752 78.9991,106.752 80.5,105.5C 81.8498,106.95 83.5165,107.617 85.5,107.5C 85.2267,105.549 85.8934,104.049 87.5,103C 85.3628,100.821 85.0295,98.3209 86.5,95.5C 87.7362,96.2458 89.0695,96.5792 90.5,96.5C 90.6399,98.1238 89.9733,99.2904 88.5,100C 89.3128,101.314 90.3128,102.481 91.5,103.5C 90.962,105.605 89.962,107.938 88.5,110.5C 89.3094,112.792 89.6427,114.959 89.5,117C 88.8333,117.333 88.1667,117.667 87.5,118C 87.6782,120.955 87.6782,124.121 87.5,127.5 Z"/></g>
<g><path style="opacity:1" fill="#968975" d="M 102.5,84.5 C 99.9808,91.5944 97.3141,98.5944 94.5,105.5C 94.8897,102.161 95.3897,98.8273 96,95.5C 98.1943,93.6111 98.6943,91.4444 97.5,89C 99.932,88.2572 101.599,86.7572 102.5,84.5 Z"/></g>
<g><path style="opacity:1" fill="#755a3d" d="M 216.5,87.5 C 215.62,89.3888 215.62,91.3888 216.5,93.5C 217.833,93.5 219.167,93.5 220.5,93.5C 220.513,96.3613 221.679,97.3613 224,96.5C 224.283,99.7423 225.117,100.076 226.5,97.5C 228.224,98.6613 229.89,98.4947 231.5,97C 230.051,95.883 228.384,95.2163 226.5,95C 229.929,89.5086 231.596,89.6752 231.5,95.5C 233.262,95.3573 234.929,95.6906 236.5,96.5C 237.939,94.6397 239.605,92.973 241.5,91.5C 242.386,92.325 242.719,93.325 242.5,94.5C 243.978,94.762 245.311,94.4287 246.5,93.5C 245.833,93.1667 245.167,92.8333 244.5,92.5C 245.939,88.9279 247.939,88.5945 250.5,91.5C 229.673,113.314 209.673,135.648 190.5,158.5C 188.801,158.34 187.134,158.506 185.5,159C 186.517,160.049 186.684,161.216 186,162.5C 185.667,162.167 185.333,161.833 185,161.5C 184.29,162.973 183.124,163.64 181.5,163.5C 181.5,165.5 181.5,167.5 181.5,169.5C 172.595,181.913 163.095,193.913 153,205.5C 145.084,217.915 136.584,229.915 127.5,241.5C 128.06,239.199 128.56,236.866 129,234.5C 130.942,230.584 132.942,226.917 135,223.5C 133.951,222.483 132.784,222.316 131.5,223C 130.853,224.609 130.02,226.109 129,227.5C 126.642,224.729 124.142,222.063 121.5,219.5C 118.663,220.509 117.33,222.509 117.5,225.5C 116.167,225.5 114.833,225.5 113.5,225.5C 113.5,226.5 113.5,227.5 113.5,228.5C 111.784,228.629 110.117,228.962 108.5,229.5C 117.404,215.096 126.904,201.096 137,187.5C 148.353,173.14 159.353,158.473 170,143.5C 184.787,124.079 200.287,105.413 216.5,87.5 Z"/></g>
<g><path style="opacity:1" fill="#745638" d="M 271.5,180.5 C 271.833,181.833 272.167,181.833 272.5,180.5C 276.14,178.882 279.807,177.215 283.5,175.5C 284.873,175.343 286.207,175.51 287.5,176C 285.936,178.744 286.436,179.577 289,178.5C 299.479,180.718 299.979,183.884 290.5,188C 290.957,188.414 291.291,188.914 291.5,189.5C 289.668,190.248 288.001,191.248 286.5,192.5C 284.201,190.768 281.701,189.434 279,188.5C 274.899,189.656 274.732,190.823 278.5,192C 276.5,192.333 274.5,192.667 272.5,193C 275.232,193.413 277.899,194.08 280.5,195C 278.558,197.034 276.725,199.2 275,201.5C 274.163,199.993 272.996,199.493 271.5,200C 271.833,200.333 272.167,200.667 272.5,201C 271.39,204.049 270.723,207.216 270.5,210.5C 269.325,210.281 268.325,210.614 267.5,211.5C 266.675,213.801 266.008,216.135 265.5,218.5C 264.649,220.882 263.316,222.882 261.5,224.5C 255.616,230.763 251.282,238.096 248.5,246.5C 250.781,250.574 250.447,254.574 247.5,258.5C 248.087,260.273 248.42,262.106 248.5,264C 247.991,271.846 247.324,279.679 246.5,287.5C 245.014,284.717 244.347,281.717 244.5,278.5C 245.346,271.398 245.68,264.398 245.5,257.5C 244.38,255.404 242.88,255.07 241,256.5C 242.179,266.751 242.679,277.084 242.5,287.5C 237.633,286.533 235.466,288.533 236,293.5C 234.984,292.366 234.317,292.699 234,294.5C 232.513,293.747 232.346,292.914 233.5,292C 232.417,289.835 231.084,287.835 229.5,286C 229.645,285.228 229.978,284.561 230.5,284C 228.398,282.267 228.065,280.267 229.5,278C 226.795,275.05 227.129,272.717 230.5,271C 228.299,269.316 227.633,267.316 228.5,265C 227.833,264.667 227.167,264.333 226.5,264C 227.306,260.084 227.306,256.084 226.5,252C 227.222,246.623 228.222,241.623 229.5,237C 228.765,233.502 228.765,230.169 229.5,227C 231.455,223.524 232.622,219.69 233,215.5C 235.734,214.638 235.901,213.805 233.5,213C 235.835,211.025 237.002,208.525 237,205.5C 238.147,206.458 239.147,206.125 240,204.5C 241.848,206.953 244.348,207.953 247.5,207.5C 247.813,204.753 247.48,202.086 246.5,199.5C 245.852,201.149 244.852,202.482 243.5,203.5C 242.77,201.659 242.103,199.825 241.5,198C 240.167,198.333 238.833,198.667 237.5,199C 238.623,195.231 239.29,191.065 239.5,186.5C 239.216,184.585 239.549,182.919 240.5,181.5C 241.496,181.414 242.329,181.748 243,182.5C 243.667,180.5 244.333,178.5 245,176.5C 249.04,173.942 250.54,170.609 249.5,166.5C 250.552,166.649 251.552,166.483 252.5,166C 254.067,162.125 255.067,161.958 255.5,165.5C 253.791,168.257 252.625,171.257 252,174.5C 251.667,173.833 251.333,173.167 251,172.5C 250.415,174.129 249.581,175.629 248.5,177C 248.78,178.395 249.447,179.562 250.5,180.5C 254.08,175.36 257.246,170.026 260,164.5C 261.441,163.74 262.941,163.074 264.5,162.5C 266.5,159.5 268.5,156.5 270.5,153.5C 271.85,154.95 273.516,155.617 275.5,155.5C 276.156,158.667 276.489,161.667 276.5,164.5C 275.335,165.584 274.002,166.417 272.5,167C 272.957,167.414 273.291,167.914 273.5,168.5C 271.604,169.466 269.604,169.799 267.5,169.5C 269.482,172.799 270.816,176.466 271.5,180.5 Z"/></g>
<g><path style="opacity:1" fill="#917e6b" d="M 190.5,158.5 C 187.848,162.482 184.848,166.149 181.5,169.5C 181.5,167.5 181.5,165.5 181.5,163.5C 183.124,163.64 184.29,162.973 185,161.5C 185.333,161.833 185.667,162.167 186,162.5C 186.684,161.216 186.517,160.049 185.5,159C 187.134,158.506 188.801,158.34 190.5,158.5 Z"/></g>
<g><path style="opacity:1" fill="#775d42" d="M 366.5,169.5 C 365.504,169.414 364.671,169.748 364,170.5C 360.701,169.512 357.367,168.512 354,167.5C 351.166,168.501 348.333,169.501 345.5,170.5C 343.5,169.167 341.5,169.167 339.5,170.5C 332.731,168.371 326.065,168.871 319.5,172C 325.042,172.594 330.542,173.428 336,174.5C 342.81,173.492 349.31,174.492 355.5,177.5C 354.209,178.527 354.209,179.527 355.5,180.5C 349.899,177.636 343.899,175.97 337.5,175.5C 306.75,179.183 282.75,193.516 265.5,218.5C 266.008,216.135 266.675,213.801 267.5,211.5C 268.325,210.614 269.325,210.281 270.5,210.5C 270.723,207.216 271.39,204.049 272.5,201C 272.167,200.667 271.833,200.333 271.5,200C 272.996,199.493 274.163,199.993 275,201.5C 276.725,199.2 278.558,197.034 280.5,195C 277.899,194.08 275.232,193.413 272.5,193C 274.5,192.667 276.5,192.333 278.5,192C 274.732,190.823 274.899,189.656 279,188.5C 281.701,189.434 284.201,190.768 286.5,192.5C 288.001,191.248 289.668,190.248 291.5,189.5C 291.291,188.914 290.957,188.414 290.5,188C 299.979,183.884 299.479,180.718 289,178.5C 286.436,179.577 285.936,178.744 287.5,176C 286.207,175.51 284.873,175.343 283.5,175.5C 306.803,161.545 331.803,157.712 358.5,164C 361.407,165.609 364.073,167.442 366.5,169.5 Z"/></g>
<g><path style="opacity:1" fill="#7c6751" d="M 366.5,169.5 C 383.433,178.647 392.933,192.981 395,212.5C 396.786,235.683 391.62,257.017 379.5,276.5C 379.739,274.533 379.406,272.699 378.5,271C 378.501,266.681 380.501,263.681 384.5,262C 386.562,255.814 388.729,249.314 391,242.5C 391.66,239.953 391.493,237.453 390.5,235C 392.833,228.003 393.666,220.836 393,213.5C 390.914,208.418 389.581,203.085 389,197.5C 386.623,193.912 384.123,190.412 381.5,187C 382.167,186.667 382.833,186.333 383.5,186C 381.074,184.855 378.741,183.522 376.5,182C 374.996,180.509 374.163,178.676 374,176.5C 371.955,174.645 369.621,173.311 367,172.5C 366.517,171.552 366.351,170.552 366.5,169.5 Z"/></g>
<g><path style="opacity:1" fill="#745638" d="M 366.5,169.5 C 366.351,170.552 366.517,171.552 367,172.5C 369.621,173.311 371.955,174.645 374,176.5C 374.163,178.676 374.996,180.509 376.5,182C 378.741,183.522 381.074,184.855 383.5,186C 382.833,186.333 382.167,186.667 381.5,187C 384.123,190.412 386.623,193.912 389,197.5C 389.581,203.085 390.914,208.418 393,213.5C 393.666,220.836 392.833,228.003 390.5,235C 391.493,237.453 391.66,239.953 391,242.5C 388.729,249.314 386.562,255.814 384.5,262C 380.501,263.681 378.501,266.681 378.5,271C 379.406,272.699 379.739,274.533 379.5,276.5C 376.005,282.819 372.005,288.819 367.5,294.5C 365.402,293.037 363.402,293.204 361.5,295C 361.957,295.414 362.291,295.914 362.5,296.5C 360.162,297.616 357.996,298.95 356,300.5C 355.667,299.833 355.333,299.167 355,298.5C 354.51,299.793 354.343,301.127 354.5,302.5C 352.508,302.672 350.842,302.005 349.5,300.5C 348.914,300.709 348.414,301.043 348,301.5C 347.104,297.786 347.604,294.286 349.5,291C 348.056,288.966 346.056,288.132 343.5,288.5C 343.817,284.525 345.651,281.525 349,279.5C 350.466,275.573 351.633,271.573 352.5,267.5C 353.408,264.013 355.074,261.013 357.5,258.5C 358.496,258.414 359.329,258.748 360,259.5C 360.36,257.392 361.027,255.392 362,253.5C 362.667,252.167 363.333,252.167 364,253.5C 364.707,251.919 365.54,250.419 366.5,249C 365.833,248.667 365.167,248.333 364.5,248C 364.936,245.822 365.436,243.322 366,240.5C 368.842,236.819 371.175,232.819 373,228.5C 373.433,226.336 372.933,224.336 371.5,222.5C 372.208,216.563 372.208,210.563 371.5,204.5C 372.167,203.5 372.833,202.5 373.5,201.5C 369.853,194.603 366.353,187.603 363,180.5C 360.94,180.106 358.773,180.106 356.5,180.5C 356.167,180.5 355.833,180.5 355.5,180.5C 354.209,179.527 354.209,178.527 355.5,177.5C 349.31,174.492 342.81,173.492 336,174.5C 330.542,173.428 325.042,172.594 319.5,172C 326.065,168.871 332.731,168.371 339.5,170.5C 341.5,169.167 343.5,169.167 345.5,170.5C 348.333,169.501 351.166,168.501 354,167.5C 357.367,168.512 360.701,169.512 364,170.5C 364.671,169.748 365.504,169.414 366.5,169.5 Z"/></g>
<g><path style="opacity:1" fill="#75593c" d="M 523.5,158.5 C 524.932,163.354 527.432,167.687 531,171.5C 532.699,172.406 534.533,172.739 536.5,172.5C 536.5,174.5 536.5,176.5 536.5,178.5C 526.022,192.773 516.022,207.44 506.5,222.5C 502.849,222.162 501.183,223.828 501.5,227.5C 500.5,227.5 499.5,227.5 498.5,227.5C 497.306,231.121 496.306,234.788 495.5,238.5C 493.833,238.5 492.167,238.5 490.5,238.5C 489.599,244.448 487.932,250.114 485.5,255.5C 483.934,259.728 481.934,263.728 479.5,267.5C 475.823,266.915 472.157,266.248 468.5,265.5C 467.692,263.577 467.192,261.577 467,259.5C 466.667,259.833 466.333,260.167 466,260.5C 464.933,259.809 463.766,259.309 462.5,259C 461.888,257.697 461.554,256.53 461.5,255.5C 460.995,257.769 459.662,259.103 457.5,259.5C 477.682,224.572 499.682,190.905 523.5,158.5 Z"/></g>
<g><path style="opacity:1" fill="#755739" d="M 127.5,241.5 C 124.228,247.721 120.228,253.387 115.5,258.5C 113.5,259.167 111.5,259.833 109.5,260.5C 107.319,263.737 105.819,267.403 105,271.5C 104.25,272.126 103.416,272.626 102.5,273C 103.451,273.718 103.617,274.551 103,275.5C 100.821,276.116 98.9882,277.283 97.5,279C 97.8333,279.333 98.1667,279.667 98.5,280C 97.7667,283.632 96.1,286.799 93.5,289.5C 92.3044,289.154 92.3044,288.654 93.5,288C 92.175,288.148 91.0084,287.982 90,287.5C 88.7267,282.406 88.7267,277.406 90,272.5C 91.0113,271.663 92.1779,271.33 93.5,271.5C 93.7935,267.563 93.4601,263.73 92.5,260C 93.938,259.781 95.2713,259.281 96.5,258.5C 96.2176,256.013 96.2176,253.347 96.5,250.5C 99.3613,250.487 100.361,249.321 99.5,247C 100.397,244.913 101.064,242.746 101.5,240.5C 103.087,236.317 105.421,232.65 108.5,229.5C 110.117,228.962 111.784,228.629 113.5,228.5C 113.5,227.5 113.5,226.5 113.5,225.5C 114.833,225.5 116.167,225.5 117.5,225.5C 117.33,222.509 118.663,220.509 121.5,219.5C 124.142,222.063 126.642,224.729 129,227.5C 130.02,226.109 130.853,224.609 131.5,223C 132.784,222.316 133.951,222.483 135,223.5C 132.942,226.917 130.942,230.584 129,234.5C 128.56,236.866 128.06,239.199 127.5,241.5 Z"/></g>
<g><path style="opacity:1" fill="#755e46" d="M 357.5,258.5 C 360.24,250.393 362.906,242.393 365.5,234.5C 367.163,232.562 367.829,230.228 367.5,227.5C 368.475,218.519 368.642,209.519 368,200.5C 366.848,192.13 363.015,185.464 356.5,180.5C 358.773,180.106 360.94,180.106 363,180.5C 366.353,187.603 369.853,194.603 373.5,201.5C 372.833,202.5 372.167,203.5 371.5,204.5C 372.208,210.563 372.208,216.563 371.5,222.5C 372.933,224.336 373.433,226.336 373,228.5C 371.175,232.819 368.842,236.819 366,240.5C 365.436,243.322 364.936,245.822 364.5,248C 365.167,248.333 365.833,248.667 366.5,249C 365.54,250.419 364.707,251.919 364,253.5C 363.333,252.167 362.667,252.167 362,253.5C 361.027,255.392 360.36,257.392 360,259.5C 359.329,258.748 358.496,258.414 357.5,258.5 Z"/></g>
<g><path style="opacity:1" fill="#bcaea3" d="M 367.5,227.5 C 367.829,230.228 367.163,232.562 365.5,234.5C 365.721,231.933 366.388,229.599 367.5,227.5 Z"/></g>
<g><path style="opacity:1" fill="#897762" d="M 506.5,222.5 C 499.677,233.675 492.677,244.675 485.5,255.5C 487.932,250.114 489.599,244.448 490.5,238.5C 492.167,238.5 493.833,238.5 495.5,238.5C 496.306,234.788 497.306,231.121 498.5,227.5C 499.5,227.5 500.5,227.5 501.5,227.5C 501.183,223.828 502.849,222.162 506.5,222.5 Z"/></g>
<g><path style="opacity:1" fill="#bdae9f" d="M 226.5,235.5 C 226.283,241.36 225.617,247.027 224.5,252.5C 224.216,246.583 224.883,240.916 226.5,235.5 Z"/></g>
<g><path style="opacity:1" fill="#765f45" d="M 87.5,128.5 C 73.6945,185.23 64.3612,242.73 59.5,301C 59.6667,302.167 59.8333,303.333 60,304.5C 69.3333,289.167 78.6667,273.833 88,258.5C 92.2774,252.253 96.7774,246.253 101.5,240.5C 101.064,242.746 100.397,244.913 99.5,247C 100.361,249.321 99.3613,250.487 96.5,250.5C 96.2176,253.347 96.2176,256.013 96.5,258.5C 95.2713,259.281 93.938,259.781 92.5,260C 93.4601,263.73 93.7935,267.563 93.5,271.5C 92.1779,271.33 91.0113,271.663 90,272.5C 88.7267,277.406 88.7267,282.406 90,287.5C 91.0084,287.982 92.175,288.148 93.5,288C 92.3044,288.654 92.3044,289.154 93.5,289.5C 96.1,286.799 97.7667,283.632 98.5,280C 98.1667,279.667 97.8333,279.333 97.5,279C 98.9882,277.283 100.821,276.116 103,275.5C 103.617,274.551 103.451,273.718 102.5,273C 103.416,272.626 104.25,272.126 105,271.5C 105.819,267.403 107.319,263.737 109.5,260.5C 111.5,259.833 113.5,259.167 115.5,258.5C 105.497,275.175 95.4967,291.841 85.5,308.5C 85.4374,305.343 84.4374,302.509 82.5,300C 85.1768,299.751 87.5101,298.751 89.5,297C 88.273,295.413 88.6063,294.079 90.5,293C 88.5188,292.395 88.1854,291.395 89.5,290C 86.5882,290.261 83.7549,289.428 81,287.5C 78.8828,288.377 76.7161,288.544 74.5,288C 72.0704,291.092 70.0704,294.425 68.5,298C 69.1667,298.333 69.8333,298.667 70.5,299C 68.7373,300.602 66.904,301.102 65,300.5C 64.5641,305.361 62.5641,307.027 59,305.5C 57.775,300.666 56.9416,295.999 56.5,291.5C 57.7599,284.743 58.7599,278.076 59.5,271.5C 57.5796,267.42 56.9129,263.254 57.5,259C 58.1667,258.333 58.8333,257.667 59.5,257C 59.1333,254.756 58.1333,254.256 56.5,255.5C 55.4697,257.517 54.4697,259.517 53.5,261.5C 56.4621,264.388 55.7954,265.721 51.5,265.5C 51.1717,263.609 50.505,262.109 49.5,261C 49.6448,259.774 49.9781,258.607 50.5,257.5C 49.2048,255.672 48.2048,253.672 47.5,251.5C 44.1032,259.365 41.4365,267.699 39.5,276.5C 42.6997,248.529 47.033,220.862 52.5,193.5C 52.1953,198.762 52.5286,203.928 53.5,209C 51.7592,217.209 49.7592,225.542 47.5,234C 46.69,239.526 46.69,244.693 47.5,249.5C 52.3481,249.359 57.0148,249.359 61.5,249.5C 62.2845,242.317 63.6178,235.317 65.5,228.5C 65.4302,227.228 65.0968,226.062 64.5,225C 66.2105,222.098 66.5438,219.098 65.5,216C 71.168,207.831 69.168,204.998 59.5,207.5C 59.2011,205.396 59.5344,203.396 60.5,201.5C 61.1924,202.025 61.6924,202.692 62,203.5C 64.1551,202.317 66.1551,202.65 68,204.5C 68.5,204 69,203.5 69.5,203C 69.2812,199.318 69.2812,195.484 69.5,191.5C 64.5126,191.299 63.1793,193.466 65.5,198C 65.1667,199.167 64.8333,200.333 64.5,201.5C 63.2888,200.726 63.2888,199.893 64.5,199C 63.8875,196.853 63.2208,194.686 62.5,192.5C 61.5,192 60.5,191.5 59.5,191C 60.4223,186.894 61.2556,182.727 62,178.5C 62.3333,179.833 62.6667,181.167 63,182.5C 64.9557,180.064 66.6224,177.397 68,174.5C 69.5848,175.376 70.5848,176.709 71,178.5C 72.9756,177.457 73.4756,176.123 72.5,174.5C 74.3845,173.803 74.7178,172.803 73.5,171.5C 75.7909,167.887 76.4575,164.053 75.5,160C 76.9308,159.535 78.0975,158.701 79,157.5C 79.2969,154.086 79.9635,150.753 81,147.5C 81.7835,144.24 81.6168,141.073 80.5,138C 82.5126,134.421 84.8459,131.254 87.5,128.5 Z"/></g>
<g><path style="opacity:1" fill="#74593b" d="M 479.5,267.5 C 468.159,288.179 460.825,310.179 457.5,333.5C 455.775,330.812 454.442,331.145 453.5,334.5C 452.167,334.833 450.833,335.167 449.5,335.5C 446.824,335.163 444.157,334.83 441.5,334.5C 441.719,333.325 441.386,332.325 440.5,331.5C 437.561,330.881 434.561,329.881 431.5,328.5C 430.618,327.24 429.618,326.074 428.5,325C 429.167,324.667 429.833,324.333 430.5,324C 429.903,322.111 429.569,320.278 429.5,318.5C 430.805,315.947 431.805,313.28 432.5,310.5C 433.698,310.06 434.865,309.727 436,309.5C 436.423,310.956 437.256,311.456 438.5,311C 436.756,308.993 435.756,305.993 435.5,302C 440.114,299.61 442.281,295.777 442,290.5C 442.645,289.354 443.478,288.354 444.5,287.5C 443.873,286.583 443.539,285.583 443.5,284.5C 447.41,275.674 452.077,267.341 457.5,259.5C 459.662,259.103 460.995,257.769 461.5,255.5C 461.554,256.53 461.888,257.697 462.5,259C 463.766,259.309 464.933,259.809 466,260.5C 466.333,260.167 466.667,259.833 467,259.5C 467.192,261.577 467.692,263.577 468.5,265.5C 472.157,266.248 475.823,266.915 479.5,267.5 Z"/></g>
<g><path style="opacity:1" fill="#bfb6a6" d="M 346.5,277.5 C 345.66,279.853 344.326,281.853 342.5,283.5C 342.845,280.802 344.178,278.802 346.5,277.5 Z"/></g>
<g><path style="opacity:1" fill="#7d674e" d="M 39.5,276.5 C 39.1636,280.167 39.997,283.5 42,286.5C 43,287.833 44,287.833 45,286.5C 45.6667,292.167 45.6667,297.833 45,303.5C 44.3333,304.833 43.6667,304.833 43,303.5C 42.9464,300.139 41.9464,297.139 40,294.5C 39.7266,296.101 39.2266,297.601 38.5,299C 38.9574,299.414 39.2907,299.914 39.5,300.5C 36.2486,304.534 35.5819,308.701 37.5,313C 33.8629,325.398 33.5295,337.898 36.5,350.5C 39.3637,353.847 41.697,357.513 43.5,361.5C 41.321,361.16 39.4877,360.16 38,358.5C 35.8199,356.137 34.1532,353.47 33,350.5C 32.3647,339.143 32.698,327.809 34,316.5C 35.8502,303.017 37.6835,289.684 39.5,276.5 Z"/></g>
<g><path style="opacity:1" fill="#745738" d="M 85.5,308.5 C 76.8746,324.537 70.708,341.537 67,359.5C 59.585,365.358 51.7517,366.025 43.5,361.5C 41.697,357.513 39.3637,353.847 36.5,350.5C 33.5295,337.898 33.8629,325.398 37.5,313C 35.5819,308.701 36.2486,304.534 39.5,300.5C 39.2907,299.914 38.9574,299.414 38.5,299C 39.2266,297.601 39.7266,296.101 40,294.5C 41.9464,297.139 42.9464,300.139 43,303.5C 43.6667,304.833 44.3333,304.833 45,303.5C 45.6667,297.833 45.6667,292.167 45,286.5C 44,287.833 43,287.833 42,286.5C 39.997,283.5 39.1636,280.167 39.5,276.5C 41.4365,267.699 44.1032,259.365 47.5,251.5C 48.2048,253.672 49.2048,255.672 50.5,257.5C 49.9781,258.607 49.6448,259.774 49.5,261C 50.505,262.109 51.1717,263.609 51.5,265.5C 55.7954,265.721 56.4621,264.388 53.5,261.5C 54.4697,259.517 55.4697,257.517 56.5,255.5C 58.1333,254.256 59.1333,254.756 59.5,257C 58.8333,257.667 58.1667,258.333 57.5,259C 56.9129,263.254 57.5796,267.42 59.5,271.5C 58.7599,278.076 57.7599,284.743 56.5,291.5C 56.9416,295.999 57.775,300.666 59,305.5C 62.5641,307.027 64.5641,305.361 65,300.5C 66.904,301.102 68.7373,300.602 70.5,299C 69.8333,298.667 69.1667,298.333 68.5,298C 70.0704,294.425 72.0704,291.092 74.5,288C 76.7161,288.544 78.8828,288.377 81,287.5C 83.7549,289.428 86.5882,290.261 89.5,290C 88.1854,291.395 88.5188,292.395 90.5,293C 88.6063,294.079 88.273,295.413 89.5,297C 87.5101,298.751 85.1768,299.751 82.5,300C 84.4374,302.509 85.4374,305.343 85.5,308.5 Z"/></g>
<g><path style="opacity:1" fill="#745a3e" d="M 239.5,186.5 C 239.29,191.065 238.623,195.231 237.5,199C 238.833,198.667 240.167,198.333 241.5,198C 242.103,199.825 242.77,201.659 243.5,203.5C 244.852,202.482 245.852,201.149 246.5,199.5C 247.48,202.086 247.813,204.753 247.5,207.5C 244.348,207.953 241.848,206.953 240,204.5C 239.147,206.125 238.147,206.458 237,205.5C 237.002,208.525 235.835,211.025 233.5,213C 235.901,213.805 235.734,214.638 233,215.5C 232.622,219.69 231.455,223.524 229.5,227C 228.765,230.169 228.765,233.502 229.5,237C 228.222,241.623 227.222,246.623 226.5,252C 227.306,256.084 227.306,260.084 226.5,264C 227.167,264.333 227.833,264.667 228.5,265C 227.633,267.316 228.299,269.316 230.5,271C 227.129,272.717 226.795,275.05 229.5,278C 228.065,280.267 228.398,282.267 230.5,284C 229.978,284.561 229.645,285.228 229.5,286C 231.084,287.835 232.417,289.835 233.5,292C 232.346,292.914 232.513,293.747 234,294.5C 234.317,292.699 234.984,292.366 236,293.5C 235.466,288.533 237.633,286.533 242.5,287.5C 242.679,277.084 242.179,266.751 241,256.5C 242.88,255.07 244.38,255.404 245.5,257.5C 245.68,264.398 245.346,271.398 244.5,278.5C 244.347,281.717 245.014,284.717 246.5,287.5C 247.324,279.679 247.991,271.846 248.5,264C 248.42,262.106 248.087,260.273 247.5,258.5C 250.447,254.574 250.781,250.574 248.5,246.5C 251.282,238.096 255.616,230.763 261.5,224.5C 257.311,234.902 253.811,245.568 251,256.5C 249.11,269.171 249.11,281.838 251,294.5C 255.255,309.927 265.088,319.26 280.5,322.5C 286.685,324.441 293.018,324.608 299.5,323C 298.167,322 298.167,321 299.5,320C 307.149,320.516 313.483,317.683 318.5,311.5C 318.833,312.167 319.167,312.833 319.5,313.5C 318.179,315.332 317.179,317.332 316.5,319.5C 319.397,319.125 322.063,319.625 324.5,321C 322.519,321.605 322.185,322.605 323.5,324C 320.975,326.898 318.308,326.898 315.5,324C 312.5,323.667 309.5,323.333 306.5,323C 305.692,321.294 304.359,320.461 302.5,320.5C 302.714,322.144 302.38,323.644 301.5,325C 302.766,325.309 303.933,325.809 305,326.5C 305.333,325.833 305.667,325.167 306,324.5C 307.734,325.249 309.567,325.749 311.5,326C 309.981,327.351 308.648,328.851 307.5,330.5C 305.899,331.165 304.399,331.499 303,331.5C 301.559,330.74 300.059,330.074 298.5,329.5C 297.304,329.846 297.304,330.346 298.5,331C 296.754,331.471 295.087,332.138 293.5,333C 294.167,333.333 294.833,333.667 295.5,334C 287.895,335.311 280.228,335.811 272.5,335.5C 270.379,335.675 268.379,335.341 266.5,334.5C 265.411,332.883 263.744,332.05 261.5,332C 262.167,331.667 262.833,331.333 263.5,331C 261.223,329.387 259.723,327.22 259,324.5C 258.751,325.624 258.251,326.624 257.5,327.5C 255.78,326.066 253.78,325.233 251.5,325C 249.664,321.744 246.997,319.411 243.5,318C 244.833,317 244.833,316 243.5,315C 244.167,314.667 244.833,314.333 245.5,314C 242.491,314.16 240.325,312.993 239,310.5C 238.667,310.833 238.333,311.167 238,311.5C 236.937,309.084 236.104,306.584 235.5,304C 234.87,302.69 233.87,301.856 232.5,301.5C 230.837,299.507 229.67,297.174 229,294.5C 225.043,280.582 223.543,266.582 224.5,252.5C 225.617,247.027 226.283,241.36 226.5,235.5C 228.195,220.099 231.695,205.099 237,190.5C 237.608,188.934 238.442,187.6 239.5,186.5 Z"/></g>
<g><path style="opacity:1" fill="#745b3f" d="M 352.5,267.5 C 351.633,271.573 350.466,275.573 349,279.5C 345.651,281.525 343.817,284.525 343.5,288.5C 346.056,288.132 348.056,288.966 349.5,291C 347.604,294.286 347.104,297.786 348,301.5C 348.414,301.043 348.914,300.709 349.5,300.5C 350.842,302.005 352.508,302.672 354.5,302.5C 354.343,301.127 354.51,299.793 355,298.5C 355.333,299.167 355.667,299.833 356,300.5C 357.996,298.95 360.162,297.616 362.5,296.5C 362.291,295.914 361.957,295.414 361.5,295C 363.402,293.204 365.402,293.037 367.5,294.5C 365.416,297.59 362.749,299.923 359.5,301.5C 359.67,302.822 359.337,303.989 358.5,305C 347.708,314.819 335.708,322.819 322.5,329C 318.812,330.182 315.145,331.348 311.5,332.5C 308.848,332.41 306.515,333.076 304.5,334.5C 293.758,336.616 283.092,336.949 272.5,335.5C 280.228,335.811 287.895,335.311 295.5,334C 294.833,333.667 294.167,333.333 293.5,333C 295.087,332.138 296.754,331.471 298.5,331C 297.304,330.346 297.304,329.846 298.5,329.5C 300.059,330.074 301.559,330.74 303,331.5C 304.399,331.499 305.899,331.165 307.5,330.5C 308.648,328.851 309.981,327.351 311.5,326C 309.567,325.749 307.734,325.249 306,324.5C 305.667,325.167 305.333,325.833 305,326.5C 303.933,325.809 302.766,325.309 301.5,325C 302.38,323.644 302.714,322.144 302.5,320.5C 304.359,320.461 305.692,321.294 306.5,323C 309.5,323.333 312.5,323.667 315.5,324C 318.308,326.898 320.975,326.898 323.5,324C 322.185,322.605 322.519,321.605 324.5,321C 322.063,319.625 319.397,319.125 316.5,319.5C 317.179,317.332 318.179,315.332 319.5,313.5C 319.167,312.833 318.833,312.167 318.5,311.5C 313.483,317.683 307.149,320.516 299.5,320C 298.167,321 298.167,322 299.5,323C 293.018,324.608 286.685,324.441 280.5,322.5C 293.178,321.161 304.844,316.994 315.5,310C 320.5,305.667 325.5,301.333 330.5,297C 334.365,292.306 338.365,287.806 342.5,283.5C 344.326,281.853 345.66,279.853 346.5,277.5C 348.137,273.882 350.137,270.549 352.5,267.5 Z"/></g>
<g><path style="opacity:1" fill="#7f6a55" d="M 232.5,301.5 C 233.87,301.856 234.87,302.69 235.5,304C 236.104,306.584 236.937,309.084 238,311.5C 238.333,311.167 238.667,310.833 239,310.5C 240.325,312.993 242.491,314.16 245.5,314C 244.833,314.333 244.167,314.667 243.5,315C 244.833,316 244.833,317 243.5,318C 246.997,319.411 249.664,321.744 251.5,325C 253.78,325.233 255.78,326.066 257.5,327.5C 258.251,326.624 258.751,325.624 259,324.5C 259.723,327.22 261.223,329.387 263.5,331C 262.833,331.333 262.167,331.667 261.5,332C 263.744,332.05 265.411,332.883 266.5,334.5C 261.5,333.499 256.833,331.666 252.5,329C 246.591,323.671 241.257,317.838 236.5,311.5C 234.6,308.371 233.267,305.037 232.5,301.5 Z"/></g>
<g><path style="opacity:1" fill="#7c6650" d="M 443.5,284.5 C 443.539,285.583 443.873,286.583 444.5,287.5C 443.478,288.354 442.645,289.354 442,290.5C 442.281,295.777 440.114,299.61 435.5,302C 435.756,305.993 436.756,308.993 438.5,311C 437.256,311.456 436.423,310.956 436,309.5C 434.865,309.727 433.698,310.06 432.5,310.5C 431.805,313.28 430.805,315.947 429.5,318.5C 429.569,320.278 429.903,322.111 430.5,324C 429.833,324.333 429.167,324.667 428.5,325C 429.618,326.074 430.618,327.24 431.5,328.5C 434.561,329.881 437.561,330.881 440.5,331.5C 441.386,332.325 441.719,333.325 441.5,334.5C 444.157,334.83 446.824,335.163 449.5,335.5C 450.833,335.167 452.167,334.833 453.5,334.5C 454.442,331.145 455.775,330.812 457.5,333.5C 457.586,334.496 457.252,335.329 456.5,336C 452.202,337.747 447.868,337.747 443.5,336C 436.183,334.699 430.016,331.532 425,326.5C 424.416,323.743 424.75,321.077 426,318.5C 429.339,311.157 432.672,303.823 436,296.5C 438.787,292.571 441.287,288.571 443.5,284.5 Z"/></g>
<g><path style="opacity:1" fill="#e3d8cb" d="M 311.5,332.5 C 309.485,333.924 307.152,334.59 304.5,334.5C 306.515,333.076 308.848,332.41 311.5,332.5 Z"/></g>
</svg>
